PathFileType	4	(X/Y/Z)	C:/Users/opensim2020/Desktop/walking_exp_matlab/subject06_walking21_straight_04.trc																																																																																																																																		
DataRate	CameraRate	NumFrames	NumMarkers	Units	OrigDataRate	OrigDataStartFrame	OrigNumFrames																																																																																																																														
100	100	5	44	mm	100	2309	104																																																																																																																														
Frame#	Time	LFHD			RFHD			LBHD			RBHD			C7			T10			CLAV			STRN			RBAK			LSHO			LUPA			LELB			LFRM			LWRA			LWRB			LFIN			RSHO			RUPA			RELB			RFRM			RWRA			RWRB			RFIN			LASI			RASI			LPSI			RPSI			LTHI			LKNE			LTIB			LANK			LHEE			LTOE			RTHI			RKNE			RTIB			RANK			RHEE			RTOE			*39			*40			*41			*42			*43		
		X1	Y1	Z1	X2	Y2	Z2	X3	Y3	Z3	X4	Y4	Z4	X5	Y5	Z5	X6	Y6	Z6	X7	Y7	Z7	X8	Y8	Z8	X9	Y9	Z9	X10	Y10	Z10	X11	Y11	Z11	X12	Y12	Z12	X13	Y13	Z13	X14	Y14	Z14	X15	Y15	Z15	X16	Y16	Z16	X17	Y17	Z17	X18	Y18	Z18	X19	Y19	Z19	X20	Y20	Z20	X21	Y21	Z21	X22	Y22	Z22	X23	Y23	Z23	X24	Y24	Z24	X25	Y25	Z25	X26	Y26	Z26	X27	Y27	Z27	X28	Y28	Z28	X29	Y29	Z29	X30	Y30	Z30	X31	Y31	Z31	X32	Y32	Z32	X33	Y33	Z33	X34	Y34	Z34	X35	Y35	Z35	X36	Y36	Z36	X37	Y37	Z37	X38	Y38	Z38	X39	Y39	Z39	X40	Y40	Z40	X41	Y41	Z41	X42	Y42	Z42	X43	Y43	Z43	X44	Y44	Z44
																																																																																																																																					
27	0.26	-730.13739	1668.87683	-1516.33911	-733.1178	1658.06921	-1385.30457	-863.81842	1614.8866	-1519.84619	-864.94794	1609.26917	-1391.35071	-863.71472	1455.17346	-1461.4563	-893.6557	1127.49072	-1446.72498	-751.17224	1380.38269	-1457.14355	-709.5946	1205.54456	-1460.17114	-934.32886	1285.84985	-1377.68372	-806.14398	1408.37207	-1620.19263	-816.08191	1206.29968	-1692.33984	-828.68243	1094.5177	-1704.27625	-811.58252	946.70874	-1729.46619	-757.90912	826.86432	-1687.04272	-817.03973	827.78137	-1728.87952	-782.32379	742.74274	-1728.09338	-802.02496	1415.08044	-1298.30029	-842.38452	1222.96582	-1201.94519	-833.35913	1101.4458	-1183.84241	-809.38757	984.21088	-1162.6853	-738.69574	850.65771	-1192.15088	-792.22021	847.69861	-1149.78345	-748.00812	776.26495	-1146.59363	-718.18384	972.70374	-1556.99561	-723.78564	966.59589	-1338.53979	-875.04181	1000.15729	-1532.01489	-872.73138	990.20874	-1365.31287	-771.80743	659.37201	-1621.55811	-762.64478	495.86267	-1597.23889	-807.81915	241.34084	-1589.93079	-823.80432	70.90354	-1543.81775	-866.16357	57.33395	-1500.2489	-680.37115	41.08669	-1535.33362	-725.49854	629.04523	-1294.65051	-683.70654	510.42154	-1314.56714	-854.21185	324.73291	-1325.60681	-994.5813	206.31831	-1370.85803	-1039.91003	215.24692	-1416.86475	-913.91876	76.84323	-1372.60278	-831.89081	1707.40125	-1459.69641	NaN	NaN	NaN	NaN	NaN	NaN	NaN	NaN	NaN	NaN	NaN	NaN
28	0.27	-715.85181	1669.44385	-1516.56726	-719.1629	1658.35303	-1385.55518	-849.63354	1615.71008	-1520.50281	-851.05389	1609.82727	-1392.01172	-849.94604	1455.7478	-1462.58508	-880.46802	1128.42029	-1448.33667	-737.46704	1380.96912	-1458.06213	-696.14172	1206.05481	-1461.37732	-921.01746	1286.60938	-1379.25562	-791.73883	1409.5166	-1620.98242	-798.30981	1207.58032	-1693.73523	-808.21313	1095.32666	-1706.07129	-787.02045	948.38635	-1731.8573	-729.93121	829.99695	-1689.49329	-789.0249	829.40674	-1731.66931	-751.48468	745.38672	-1730.97888	-788.99786	1415.54712	-1299.38501	-832.00439	1223.71277	-1203.63367	-824.32446	1102.03101	-1185.922	-803.20648	984.22253	-1164.51917	-736.46802	848.24701	-1193.03381	-789.20203	847.33795	-1151.3009	-746.99304	774.6825	-1147.91077	-705.72186	972.53711	-1558.91846	-709.43768	967.89337	-1339.92322	-862.12207	1000.61835	-1533.08618	-859.35449	991.4649	-1366.33142	-763.07434	658.86432	-1622.03296	-757.15167	495.1449	-1597.52478	-806.43787	241.38545	-1589.87524	-823.66986	71.16673	-1543.60278	-865.97034	57.58715	-1499.81152	-680.16553	40.89295	-1535.25842	-706.50928	632.28491	-1295.1178	-662.12018	514.34509	-1316.1853	-826.27203	322.08417	-1327.44482	-961.28589	197.25223	-1372.8667	-1007.19147	203.13385	-1418.97595	-871.92072	73.96674	-1373.66455	-817.63977	1708.02551	-1460.05237	NaN	NaN	NaN	NaN	NaN	NaN	NaN	NaN	NaN	NaN	NaN	NaN
29	0.28	-701.56763	1669.78271	-1516.69531	-705.02997	1658.32605	-1385.81238	-835.43927	1616.27771	-1521.09253	-837.1911	1610.03809	-1392.63306	-836.08362	1456.13501	-1463.6825	-867.23602	1128.97681	-1449.94983	-723.7558	1381.20813	-1458.94519	-682.68542	1206.22803	-1462.60925	-907.64905	1287.00415	-1380.91626	-777.37939	1410.31824	-1621.84839	-780.81055	1208.55688	-1695.18445	-788.33197	1096.14172	-1708.19556	-762.71906	949.96387	-1734.28809	-701.7135	833.41443	-1692.03503	-760.84607	830.99164	-1734.13989	-720.46906	748.21545	-1733.64685	-775.85327	1415.64172	-1300.39453	-820.95758	1224.09631	-1205.08179	-815.36182	1102.24695	-1187.83228	-797.0498	983.9389	-1166.26538	-733.03668	846.27588	-1194.22803	-786.24994	846.78223	-1152.80713	-745.91492	772.73431	-1149.19739	-693.19226	972.04834	-1560.87341	-696.79846	968.47266	-1342.04114	-849.29462	1000.76318	-1534.13831	-846.06677	992.35321	-1367.29968	-754.30859	658.14972	-1622.35217	-751.71716	494.38309	-1597.80981	-804.95105	241.42381	-1589.63647	-823.06909	71.19625	-1543.04407	-865.87085	57.82672	-1499.4469	-679.93994	40.69627	-1535.18445	-687.54431	635.07983	-1295.6582	-640.86932	518.08826	-1317.83618	-798.32965	319.04419	-1329.09729	-927.0401	187.50037	-1374.76807	-973.04895	190.20738	-1421.02161	-829.81738	71.21281	-1374.05371	-803.36584	1708.34546	-1460.34619	NaN	NaN	NaN	NaN	NaN	NaN	NaN	NaN	NaN	NaN	NaN	NaN
30	0.29	-687.19855	1669.72888	-1516.67749	-691.04309	1657.99866	-1385.92163	-821.14172	1616.56934	-1521.59546	-823.26117	1609.99365	-1393.1665	-822.20544	1456.26208	-1464.70996	-853.97839	1129.16333	-1451.47632	-710.02234	1381.22156	-1459.83508	-669.37158	1206.08521	-1463.88318	-894.297	1287.01843	-1382.71252	-763.13281	1410.79712	-1622.68884	-763.56079	1209.24976	-1696.68237	-768.70709	1096.6272	-1710.22852	-738.54181	951.34406	-1736.69727	-673.60846	836.95673	-1694.54773	-732.48834	832.40863	-1736.27466	-689.30566	751.29669	-1736.20032	-762.62079	1415.32983	-1301.30847	-810.32953	1224.04504	-1206.61523	-806.38617	1102.15613	-1189.62	-790.85107	983.38953	-1167.9259	-729.60986	844.13519	-1195.21985	-783.20923	846.146	-1154.13757	-744.93182	770.96039	-1150.43628	-680.61816	971.23676	-1562.66443	-683.80145	968.96094	-1343.78491	-836.51581	1000.62152	-1535.12817	-832.97473	992.8255	-1368.30615	-745.15234	657.37988	-1622.38525	-746.33057	493.57932	-1598.1228	-802.56049	241.28456	-1589.30164	-822.71362	71.33379	-1542.68701	-865.04126	57.97879	-1498.80652	-679.72308	40.57261	-1535.13367	-668.96875	637.54828	-1296.10571	-620.2207	521.69391	-1319.43896	-770.10529	315.49158	-1330.75378	-891.58557	177.06766	-1376.53284	-937.59637	176.96454	-1423.18323	-787.40234	67.56531	-1374.7196	-789.08917	1708.44543	-1460.52295	NaN	NaN	NaN	NaN	NaN	NaN	NaN	NaN	NaN	NaN	NaN	NaN
31	0.3	-672.75476	1669.52966	-1516.76343	-677.03894	1657.44482	-1385.99841	-806.8418	1616.57825	-1522.09814	-809.21466	1609.64551	-1393.66736	-808.27612	1456.12366	-1465.68665	-840.75891	1128.98071	-1452.98096	-696.24005	1380.94922	-1460.72546	-655.91315	1205.66235	-1465.2074	-880.87463	1286.7334	-1384.57275	-748.9917	1410.91895	-1623.61707	-746.53113	1209.62317	-1698.22632	-749.29999	1096.91235	-1712.43225	-714.60779	952.70001	-1739.07007	-645.72241	840.46667	-1697.20862	-704.2666	833.94275	-1738.27966	-658.09808	754.58936	-1738.53125	-749.32483	1414.60718	-1302.11353	-799.57703	1223.57556	-1208.20349	-797.40479	1101.73621	-1191.30762	-784.75507	982.62616	-1169.29419	-726.25555	841.87671	-1196.05518	-780.03937	845.02307	-1155.66028	-743.53314	768.90991	-1151.69116	-667.95038	970.07697	-1564.45569	-669.38458	969.19232	-1344.9082	-823.83063	1000.2207	-1536.04272	-819.93164	992.97443	-1369.24573	-736.88708	656.66968	-1622.95337	-740.79022	492.76315	-1598.47913	-800.18445	241.14607	-1589.61121	-822.40668	71.40886	-1542.37683	-865.18982	58.71737	-1498.8999	-679.51605	40.43135	-1535.05884	-650.09918	639.77515	-1296.43396	-600.10437	525.04071	-1321.021	-741.72137	311.43289	-1332.11755	-855.49707	166.60402	-1378.40222	-900.99017	163.50227	-1425.27222	-744.98969	63.78762	-1375.38708	-774.76385	1708.24683	-1460.73413	NaN	NaN	NaN	NaN	NaN	NaN	NaN	NaN	NaN	NaN	NaN	NaN
